<svg width="100.378906" height="10.011169" viewBox="0 0 100.379 10.0112" fill="none" xmlns="http://www.w3.org/2000/svg" xmlns:xlink="http://www.w3.org/1999/xlink">
	<desc>
			Created with Pixso.
	</desc>
	<defs/>
	<path id="Северяночка" d="M5.85 7.5C6.12 7.4 6.37 7.28 6.57 7.13C6.78 6.99 7.02 7 7.12 7.15L8.11 8.64C8.13 8.67 8.14 8.71 8.14 8.75C8.14 8.86 8.07 8.99 7.95 9.07C7.59 9.34 7.14 9.57 6.59 9.74C6.05 9.92 5.55 10.01 5.08 10.01C4.38 10.01 3.71 9.87 3.08 9.62C2.46 9.35 1.92 9 1.46 8.56C1.01 8.12 0.66 7.58 0.39 6.97C0.13 6.35 0 5.69 0 5C0 4.31 0.13 3.66 0.39 3.04C0.66 2.42 1.01 1.89 1.46 1.45C1.92 1 2.46 0.65 3.08 0.39C3.71 0.13 4.38 0 5.08 0C5.53 0 6.04 0.09 6.58 0.27Q7.41 0.54 8 0.96C8.1 1.04 8.16 1.15 8.16 1.25C8.16 1.3 8.14 1.35 8.11 1.4L7.1 2.86C7 3 6.79 3.02 6.61 2.89C6.39 2.73 6.14 2.59 5.86 2.5C5.57 2.4 5.32 2.34 5.08 2.34C4.33 2.34 3.69 2.6 3.17 3.12C2.65 3.63 2.39 4.26 2.39 5C2.39 5.74 2.65 6.37 3.17 6.88C3.69 7.39 4.33 7.64 5.08 7.64C5.32 7.64 5.57 7.6 5.85 7.5ZM61.35 6.97C61.09 6.35 60.96 5.69 60.96 5.01C60.96 4.32 61.09 3.67 61.35 3.05C61.62 2.42 61.98 1.89 62.42 1.45C62.87 1.01 63.41 0.65 64.03 0.4C64.65 0.13 65.3 0 66 0C66.69 0 67.35 0.13 67.96 0.4C68.58 0.65 69.12 1.01 69.57 1.45C70.01 1.89 70.37 2.42 70.63 3.05C70.9 3.67 71.03 4.32 71.03 5.01C71.03 5.93 70.8 6.77 70.36 7.53C69.92 8.29 69.32 8.9 68.54 9.34C67.77 9.78 66.92 10 66 10C65.3 10 64.65 9.87 64.03 9.61C63.41 9.35 62.87 8.99 62.42 8.55C61.98 8.11 61.62 7.58 61.35 6.97ZM77.58 0.53C77.58 0.34 77.74 0.17 77.92 0.17L79.66 0.17C79.84 0.17 79.98 0.32 79.98 0.53L79.98 9.45C79.98 9.64 79.83 9.8 79.64 9.8L77.92 9.8C77.73 9.8 77.58 9.64 77.58 9.45L77.58 6.45C77.11 6.9 76.42 7.2 75.67 7.2C74.53 7.2 73.61 6.83 72.89 6.12Q72.65 5.87 72.46 5.58Q71.82 4.62 71.82 3.23L71.82 0.53C71.82 0.34 71.97 0.17 72.15 0.17L73.85 0.17C74.06 0.17 74.22 0.32 74.22 0.53L74.22 3.23C74.22 4.26 74.83 4.87 75.87 4.87C76.4 4.87 76.81 4.72 77.12 4.42C77.43 4.13 77.58 3.73 77.58 3.24L77.58 0.53ZM96.37 0.17C96.56 0.17 96.74 0.3 96.81 0.5L100.34 9.42C100.36 9.47 100.37 9.53 100.37 9.57C100.37 9.71 100.28 9.81 100.08 9.81L98.2 9.81C98.02 9.81 97.85 9.68 97.78 9.49L97.34 8.23L93.99 8.23L93.56 9.49C93.5 9.67 93.33 9.8 93.13 9.8L91.25 9.8C91.07 9.8 90.96 9.71 90.96 9.56C90.96 9.52 90.98 9.47 91 9.41L94.53 0.5C94.62 0.29 94.8 0.17 94.98 0.17L96.37 0.17ZM9.7 9.8C9.48 9.8 9.35 9.67 9.35 9.45L9.35 0.53C9.35 0.31 9.48 0.18 9.7 0.18L15.92 0.18C16.14 0.18 16.28 0.31 16.28 0.53L16.28 2.04C16.28 2.27 16.16 2.39 15.92 2.39L11.72 2.39L11.72 3.98L14.91 3.98C15.15 3.98 15.3 4.12 15.3 4.35L15.3 5.6C15.3 5.81 15.15 5.95 14.91 5.95L11.72 5.95L11.72 7.58L15.92 7.58C16.22 7.58 16.41 7.76 16.41 8.03L16.41 9.45C16.41 9.66 16.27 9.8 16.05 9.8L9.7 9.8ZM24.69 2.96C24.69 3.66 24.34 4.34 23.8 4.7C24.21 4.89 24.53 5.18 24.77 5.58Q24.91 5.82 25 6.07Q25.12 6.47 25.12 6.9C25.12 7.81 24.83 8.53 24.23 9.03C23.64 9.54 22.82 9.8 21.75 9.8L18 9.8C17.82 9.8 17.74 9.71 17.74 9.55L17.74 0.43C17.74 0.26 17.82 0.18 18 0.18L21.47 0.18C22.49 0.18 23.28 0.42 23.84 0.91C24.4 1.4 24.69 2.08 24.69 2.96ZM26.67 9.8C26.45 9.8 26.32 9.67 26.32 9.45L26.32 0.53C26.32 0.31 26.45 0.18 26.67 0.18L32.89 0.18C33.11 0.18 33.25 0.31 33.25 0.53L33.25 2.04C33.25 2.27 33.12 2.39 32.89 2.39L28.69 2.39L28.69 3.98L31.88 3.98C32.12 3.98 32.26 4.12 32.26 4.35L32.26 5.6C32.26 5.81 32.12 5.95 31.88 5.95L28.69 5.95L28.69 7.58L32.89 7.58C33.19 7.58 33.38 7.76 33.38 8.03L33.38 9.45C33.38 9.66 33.24 9.8 33.02 9.8L26.67 9.8ZM35.91 0.18L38.27 0.18C39.3 0.18 40.14 0.48 40.78 1.09C41.42 1.7 41.74 2.51 41.74 3.52C41.74 4.52 41.42 5.33 40.78 5.93C40.14 6.53 39.3 6.83 38.27 6.83L37.11 6.83L37.11 9.45C37.11 9.67 36.98 9.8 36.75 9.8L35.05 9.8C34.83 9.8 34.71 9.67 34.71 9.45L34.71 0.53C34.71 0.33 34.85 0.18 35.05 0.18L35.91 0.18ZM46.05 0.18L49.44 0.18C49.65 0.18 49.79 0.32 49.79 0.53L49.79 9.45C49.79 9.67 49.66 9.8 49.44 9.8L47.75 9.8C47.52 9.8 47.39 9.67 47.39 9.45L47.39 6.79L46.4 6.79L44.99 9.51C44.86 9.74 44.77 9.8 44.58 9.8L42.6 9.8C42.44 9.8 42.34 9.69 42.34 9.55C42.34 9.5 42.35 9.45 42.38 9.4L44.07 6.27C43.12 5.71 42.58 4.72 42.58 3.52C42.58 2.51 42.89 1.7 43.54 1.09C44.18 0.48 45.02 0.18 46.05 0.18ZM57.41 0.44C57.41 0.26 57.5 0.18 57.66 0.18L59.53 0.18C59.7 0.18 59.78 0.26 59.78 0.44L59.78 9.55C59.78 9.72 59.7 9.8 59.53 9.8L57.66 9.8C57.5 9.8 57.41 9.72 57.41 9.55L57.41 5.93L53.79 5.93L53.79 9.55C53.79 9.72 53.7 9.8 53.54 9.8L51.67 9.8C51.5 9.8 51.41 9.72 51.41 9.55L51.41 0.44C51.41 0.26 51.5 0.18 51.67 0.18L53.54 0.18C53.7 0.18 53.79 0.26 53.79 0.44L53.79 3.76L57.41 3.76L57.41 0.44ZM90.41 0.63L87.33 4.71L90.5 9.39C90.55 9.46 90.57 9.53 90.57 9.6C90.57 9.72 90.49 9.82 90.34 9.82L88.14 9.82C88 9.82 87.89 9.76 87.8 9.66L85.36 6.03L84 6.03L84 9.54C84 9.71 83.91 9.8 83.75 9.8L81.86 9.8C81.69 9.8 81.6 9.71 81.6 9.54L81.6 0.44C81.6 0.27 81.69 0.19 81.86 0.19L83.75 0.19C83.91 0.19 84 0.27 84 0.44L84 3.78L85.07 3.78L87.57 0.43C87.73 0.23 87.85 0.2 88.08 0.2L90.26 0.2C90.42 0.2 90.5 0.29 90.5 0.41C90.5 0.48 90.47 0.56 90.41 0.63ZM22.29 3.13C22.29 2.63 21.97 2.32 21.44 2.32L20.14 2.32L20.14 3.94L21.44 3.94C21.97 3.94 22.29 3.63 22.29 3.13ZM45.3 4.38C45.53 4.62 45.81 4.73 46.15 4.73L47.39 4.73L47.39 2.34L46.15 2.34C45.81 2.34 45.52 2.45 45.3 2.67C45.08 2.88 44.97 3.16 44.97 3.5C44.97 3.85 45.08 4.14 45.3 4.38ZM37.11 2.34L37.11 4.67L38.17 4.67C38.51 4.67 38.79 4.56 39.01 4.34C39.23 4.12 39.35 3.85 39.35 3.51C39.35 3.17 39.23 2.9 39.01 2.68C38.79 2.46 38.51 2.34 38.17 2.34L37.11 2.34ZM64.12 3.15C63.62 3.65 63.36 4.27 63.36 5.01C63.36 5.74 63.61 6.35 64.12 6.86C64.63 7.37 65.26 7.62 66 7.62C66.73 7.62 67.35 7.37 67.87 6.86C68.37 6.35 68.63 5.74 68.63 5.01C68.63 4.27 68.37 3.65 67.87 3.15C67.35 2.64 66.73 2.38 66 2.38C65.26 2.38 64.64 2.64 64.12 3.15ZM96.66 6.24L95.66 3.33L94.66 6.24L96.66 6.24ZM20.14 5.73L20.14 7.66L21.72 7.66C22.33 7.66 22.72 7.27 22.72 6.68C22.72 6.09 22.33 5.73 21.72 5.73L20.14 5.73Z" fill="#414141" fill-opacity="1.000000" fill-rule="evenodd"/>
</svg>
