<svg display="none" xmlns="http://www.w3.org/2000/svg" xmlns:xlink="http://www.w3.org/1999/xlink">
    <!-- Icon logo -->
    <symbol id="icon-logo" width="40" height="32" viewBox="0 0 40 32" fill="none">
        <rect id="atom" rx="0.000000" width="32.659805" height="14.180889"
            transform="translate(3.648438 17.318359)" fill="#FFFFFF" fill-opacity="0" />
        <path id="Vector"
            d="M35.66 16.81L4.28 16.81C3.62 16.81 3.09 17.37 3.15 18.03C3.84 25.84 11.11 31.99 19.98 31.99C28.84 31.99 36.11 25.85 36.8 18.03C36.86 17.37 36.32 16.81 35.66 16.81Z"
            fill="#FF6633" fill-opacity="1.000000" fill-rule="nonzero" />
        <path id="Vector (Stroke)"
            d="M0.22 3.33C1.78 1.27 4.6 0 7.71 0C10.81 0 13.63 1.27 15.19 3.33C15.56 3.81 15.47 4.5 14.98 4.87C14.5 5.24 13.8 5.14 13.43 4.66C12.36 3.25 10.25 2.2 7.71 2.2C5.16 2.2 3.05 3.25 1.98 4.66C1.61 5.14 0.92 5.24 0.43 4.87C-0.06 4.5 -0.15 3.81 0.22 3.33Z"
            fill="#414141" fill-opacity="1.000000" fill-rule="evenodd" />
        <path id="Vector (Stroke)"
            d="M24.76 3.33C26.33 1.27 29.14 0 32.25 0C35.35 0 38.17 1.27 39.73 3.33C40.1 3.81 40.01 4.5 39.53 4.87C39.04 5.24 38.35 5.14 37.98 4.66C36.9 3.25 34.79 2.2 32.25 2.2C29.7 2.2 27.59 3.25 26.52 4.66C26.15 5.14 25.46 5.24 24.98 4.87C24.49 4.5 24.39 3.81 24.76 3.33Z"
            fill="#414141" fill-opacity="1.000000" fill-rule="evenodd" />
    </symbol>

    <!-- Icon logo title -->
    <symbol id="icon-logo-title" width="100" height="10" viewBox="0 0 100 10" fill="none">
        <path
            d="M5.85 7.5C6.12 7.4 6.37 7.28 6.57 7.13C6.78 6.99 7.02 7 7.12 7.15L8.11 8.64C8.13 8.67 8.14 8.71 8.14 8.75C8.14 8.86 8.07 8.99 7.95 9.07C7.59 9.34 7.14 9.57 6.59 9.74C6.05 9.92 5.55 10.01 5.08 10.01C4.38 10.01 3.71 9.87 3.08 9.62C2.46 9.35 1.92 9 1.46 8.56C1.01 8.12 0.66 7.58 0.39 6.97C0.13 6.35 0 5.69 0 5C0 4.31 0.13 3.66 0.39 3.04C0.66 2.42 1.01 1.89 1.46 1.45C1.92 1 2.46 0.65 3.08 0.39C3.71 0.13 4.38 0 5.08 0C5.53 0 6.04 0.09 6.58 0.27Q7.41 0.54 8 0.96C8.1 1.04 8.16 1.15 8.16 1.25C8.16 1.3 8.14 1.35 8.11 1.4L7.1 2.86C7 3 6.79 3.02 6.61 2.89C6.39 2.73 6.14 2.59 5.86 2.5C5.57 2.4 5.32 2.34 5.08 2.34C4.33 2.34 3.69 2.6 3.17 3.12C2.65 3.63 2.39 4.26 2.39 5C2.39 5.74 2.65 6.37 3.17 6.88C3.69 7.39 4.33 7.64 5.08 7.64C5.32 7.64 5.57 7.6 5.85 7.5ZM61.35 6.97C61.09 6.35 60.96 5.69 60.96 5.01C60.96 4.32 61.09 3.67 61.35 3.05C61.62 2.42 61.98 1.89 62.42 1.45C62.87 1.01 63.41 0.65 64.03 0.4C64.65 0.13 65.3 0 66 0C66.69 0 67.35 0.13 67.96 0.4C68.58 0.65 69.12 1.01 69.57 1.45C70.01 1.89 70.37 2.42 70.63 3.05C70.9 3.67 71.03 4.32 71.03 5.01C71.03 5.93 70.8 6.77 70.36 7.53C69.92 8.29 69.32 8.9 68.54 9.34C67.77 9.78 66.92 10 66 10C65.3 10 64.65 9.87 64.03 9.61C63.41 9.35 62.87 8.99 62.42 8.55C61.98 8.11 61.62 7.58 61.35 6.97ZM77.58 0.53C77.58 0.34 77.74 0.17 77.92 0.17L79.66 0.17C79.84 0.17 79.98 0.32 79.98 0.53L79.98 9.45C79.98 9.64 79.83 9.8 79.64 9.8L77.92 9.8C77.73 9.8 77.58 9.64 77.58 9.45L77.58 6.45C77.11 6.9 76.42 7.2 75.67 7.2C74.53 7.2 73.61 6.83 72.89 6.12Q72.65 5.87 72.46 5.58Q71.82 4.62 71.82 3.23L71.82 0.53C71.82 0.34 71.97 0.17 72.15 0.17L73.85 0.17C74.06 0.17 74.22 0.32 74.22 0.53L74.22 3.23C74.22 4.26 74.83 4.87 75.87 4.87C76.4 4.87 76.81 4.72 77.12 4.42C77.43 4.13 77.58 3.73 77.58 3.24L77.58 0.53ZM96.37 0.17C96.56 0.17 96.74 0.3 96.81 0.5L100.34 9.42C100.36 9.47 100.37 9.53 100.37 9.57C100.37 9.71 100.28 9.81 100.08 9.81L98.2 9.81C98.02 9.81 97.85 9.68 97.78 9.49L97.34 8.23L93.99 8.23L93.56 9.49C93.5 9.67 93.33 9.8 93.13 9.8L91.25 9.8C91.07 9.8 90.96 9.71 90.96 9.56C90.96 9.52 90.98 9.47 91 9.41L94.53 0.5C94.62 0.29 94.8 0.17 94.98 0.17L96.37 0.17ZM9.7 9.8C9.48 9.8 9.35 9.67 9.35 9.45L9.35 0.53C9.35 0.31 9.48 0.18 9.7 0.18L15.92 0.18C16.14 0.18 16.28 0.31 16.28 0.53L16.28 2.04C16.28 2.27 16.16 2.39 15.92 2.39L11.72 2.39L11.72 3.98L14.91 3.98C15.15 3.98 15.3 4.12 15.3 4.35L15.3 5.6C15.3 5.81 15.15 5.95 14.91 5.95L11.72 5.95L11.72 7.58L15.92 7.58C16.22 7.58 16.41 7.76 16.41 8.03L16.41 9.45C16.41 9.66 16.27 9.8 16.05 9.8L9.7 9.8ZM24.69 2.96C24.69 3.66 24.34 4.34 23.8 4.7C24.21 4.89 24.53 5.18 24.77 5.58Q24.91 5.82 25 6.07Q25.12 6.47 25.12 6.9C25.12 7.81 24.83 8.53 24.23 9.03C23.64 9.54 22.82 9.8 21.75 9.8L18 9.8C17.82 9.8 17.74 9.71 17.74 9.55L17.74 0.43C17.74 0.26 17.82 0.18 18 0.18L21.47 0.18C22.49 0.18 23.28 0.42 23.84 0.91C24.4 1.4 24.69 2.08 24.69 2.96ZM26.67 9.8C26.45 9.8 26.32 9.67 26.32 9.45L26.32 0.53C26.32 0.31 26.45 0.18 26.67 0.18L32.89 0.18C33.11 0.18 33.25 0.31 33.25 0.53L33.25 2.04C33.25 2.27 33.12 2.39 32.89 2.39L28.69 2.39L28.69 3.98L31.88 3.98C32.12 3.98 32.26 4.12 32.26 4.35L32.26 5.6C32.26 5.81 32.12 5.95 31.88 5.95L28.69 5.95L28.69 7.58L32.89 7.58C33.19 7.58 33.38 7.76 33.38 8.03L33.38 9.45C33.38 9.66 33.24 9.8 33.02 9.8L26.67 9.8ZM35.91 0.18L38.27 0.18C39.3 0.18 40.14 0.48 40.78 1.09C41.42 1.7 41.74 2.51 41.74 3.52C41.74 4.52 41.42 5.33 40.78 5.93C40.14 6.53 39.3 6.83 38.27 6.83L37.11 6.83L37.11 9.45C37.11 9.67 36.98 9.8 36.75 9.8L35.05 9.8C34.83 9.8 34.71 9.67 34.71 9.45L34.71 0.53C34.71 0.33 34.85 0.18 35.05 0.18L35.91 0.18ZM46.05 0.18L49.44 0.18C49.65 0.18 49.79 0.32 49.79 0.53L49.79 9.45C49.79 9.67 49.66 9.8 49.44 9.8L47.75 9.8C47.52 9.8 47.39 9.67 47.39 9.45L47.39 6.79L46.4 6.79L44.99 9.51C44.86 9.74 44.77 9.8 44.58 9.8L42.6 9.8C42.44 9.8 42.34 9.69 42.34 9.55C42.34 9.5 42.35 9.45 42.38 9.4L44.07 6.27C43.12 5.71 42.58 4.72 42.58 3.52C42.58 2.51 42.89 1.7 43.54 1.09C44.18 0.48 45.02 0.18 46.05 0.18ZM57.41 0.44C57.41 0.26 57.5 0.18 57.66 0.18L59.53 0.18C59.7 0.18 59.78 0.26 59.78 0.44L59.78 9.55C59.78 9.72 59.7 9.8 59.53 9.8L57.66 9.8C57.5 9.8 57.41 9.72 57.41 9.55L57.41 5.93L53.79 5.93L53.79 9.55C53.79 9.72 53.7 9.8 53.54 9.8L51.67 9.8C51.5 9.8 51.41 9.72 51.41 9.55L51.41 0.44C51.41 0.26 51.5 0.18 51.67 0.18L53.54 0.18C53.7 0.18 53.79 0.26 53.79 0.44L53.79 3.76L57.41 3.76L57.41 0.44ZM90.41 0.63L87.33 4.71L90.5 9.39C90.55 9.46 90.57 9.53 90.57 9.6C90.57 9.72 90.49 9.82 90.34 9.82L88.14 9.82C88 9.82 87.89 9.76 87.8 9.66L85.36 6.03L84 6.03L84 9.54C84 9.71 83.91 9.8 83.75 9.8L81.86 9.8C81.69 9.8 81.6 9.71 81.6 9.54L81.6 0.44C81.6 0.27 81.69 0.19 81.86 0.19L83.75 0.19C83.91 0.19 84 0.27 84 0.44L84 3.78L85.07 3.78L87.57 0.43C87.73 0.23 87.85 0.2 88.08 0.2L90.26 0.2C90.42 0.2 90.5 0.29 90.5 0.41C90.5 0.48 90.47 0.56 90.41 0.63ZM22.29 3.13C22.29 2.63 21.97 2.32 21.44 2.32L20.14 2.32L20.14 3.94L21.44 3.94C21.97 3.94 22.29 3.63 22.29 3.13ZM45.3 4.38C45.53 4.62 45.81 4.73 46.15 4.73L47.39 4.73L47.39 2.34L46.15 2.34C45.81 2.34 45.52 2.45 45.3 2.67C45.08 2.88 44.97 3.16 44.97 3.5C44.97 3.85 45.08 4.14 45.3 4.38ZM37.11 2.34L37.11 4.67L38.17 4.67C38.51 4.67 38.79 4.56 39.01 4.34C39.23 4.12 39.35 3.85 39.35 3.51C39.35 3.17 39.23 2.9 39.01 2.68C38.79 2.46 38.51 2.34 38.17 2.34L37.11 2.34ZM64.12 3.15C63.62 3.65 63.36 4.27 63.36 5.01C63.36 5.74 63.61 6.35 64.12 6.86C64.63 7.37 65.26 7.62 66 7.62C66.73 7.62 67.35 7.37 67.87 6.86C68.37 6.35 68.63 5.74 68.63 5.01C68.63 4.27 68.37 3.65 67.87 3.15C67.35 2.64 66.73 2.38 66 2.38C65.26 2.38 64.64 2.64 64.12 3.15ZM96.66 6.24L95.66 3.33L94.66 6.24L96.66 6.24ZM20.14 5.73L20.14 7.66L21.72 7.66C22.33 7.66 22.72 7.27 22.72 6.68C22.72 6.09 22.33 5.73 21.72 5.73L20.14 5.73Z"
            fill="#414141" fill-opacity="1.000000" fill-rule="evenodd" />
    </symbol>

    <!-- Icon dropdown -->
    <symbol id="icon-dropdown" viewBox="0 0 24 24" fill="none">
        <rect id="feather-icon / menu" rx="0.000000" width="23.000000" height="23.000000"
            transform="translate(0.500000 0.500000)" fill="currentColor" fill-opacity="0" />
        <path id="Shape (Stroke)"
            d="M2.5 12C2.5 11.72 2.72 11.5 3 11.5L21 11.5C21.27 11.5 21.5 11.72 21.5 12C21.5 12.27 21.27 12.5 21 12.5L3 12.5C2.72 12.5 2.5 12.27 2.5 12Z"
            fill="currentColor" fill-opacity="1.000000" fill-rule="evenodd" />
        <path id="Shape (Stroke)"
            d="M2.5 6C2.5 5.72 2.72 5.5 3 5.5L21 5.5C21.27 5.5 21.5 5.72 21.5 6C21.5 6.27 21.27 6.5 21 6.5L3 6.5C2.72 6.5 2.5 6.27 2.5 6Z"
            fill="currentColor" fill-opacity="1.000000" fill-rule="evenodd" />
        <path id="Shape (Stroke)"
            d="M2.5 18C2.5 17.72 2.72 17.5 3 17.5L21 17.5C21.27 17.5 21.5 17.72 21.5 18C21.5 18.27 21.27 18.5 21 18.5L3 18.5C2.72 18.5 2.5 18.27 2.5 18Z"
            fill="currentColor" fill-opacity="1.000000" fill-rule="evenodd" />
    </symbol>

    <!-- Icon search -->
    <symbol id="icon-search" viewBox="0 0 24 24" fill="none">
        <rect rx="0.000000" width="23.000000" height="23.000000"
            transform="translate(0.500000 0.500000)" fill="#FFFFFF" fill-opacity="0" />
        <path id="Oval (Stroke)"
            d="M2.5 10.5C2.5 6.08 6.08 2.5 10.5 2.5C14.91 2.5 18.5 6.08 18.5 10.5C18.5 14.91 14.91 18.5 10.5 18.5C6.08 18.5 2.5 14.91 2.5 10.5ZM10.5 3.5C6.63 3.5 3.5 6.63 3.5 10.5C3.5 14.36 6.63 17.5 10.5 17.5C14.36 17.5 17.5 14.36 17.5 10.5C17.5 6.63 14.36 3.5 10.5 3.5Z"
            fill="#414141" fill-opacity="1.000000" fill-rule="evenodd" />
        <path id="Shape (Stroke)"
            d="M15.44 15.44C15.64 15.25 15.96 15.25 16.15 15.44L21.35 20.64C21.55 20.84 21.55 21.15 21.35 21.35C21.16 21.54 20.84 21.54 20.64 21.35L15.44 16.15C15.25 15.95 15.25 15.64 15.44 15.44Z"
            fill="#414141" fill-opacity="1.000000" fill-rule="evenodd" />
    </symbol>

    <!-- Icon heart -->
    <symbol id="icon-heart" width="22" height="20" viewBox="0 0 22 20" fill="none">
        <path
            d="M11.65 1.75C12.78 0.63 14.3 0 15.9 0C17.49 0 19.01 0.63 20.14 1.75C21.26 2.88 21.9 4.41 21.9 6C21.9 7.59 21.26 9.12 20.14 10.24L11.3 19.08C11.1 19.28 10.79 19.28 10.59 19.08L1.75 10.24C-0.59 7.9 -0.59 4.1 1.75 1.75C4.1 -0.59 7.9 -0.59 10.24 1.75L10.95 2.46L11.65 1.75ZM15.9 1C14.57 1 13.3 1.52 12.36 2.46L11.3 3.52C11.21 3.61 11.08 3.67 10.95 3.67C10.82 3.67 10.69 3.61 10.59 3.52L9.53 2.46C7.58 0.51 4.41 0.51 2.46 2.46C0.51 4.41 0.51 7.58 2.46 9.53L10.95 18.02L19.43 9.53C20.37 8.6 20.9 7.32 20.9 6C20.9 4.67 20.37 3.4 19.43 2.46C18.5 1.52 17.22 1 15.9 1Z"
            fill="currentColor" fill-opacity="1.000000" fill-rule="evenodd" />
    </symbol>

    <!-- Icon box -->
    <symbol id="icon-box" width="24.000000" height="24.000000" viewBox="0 0 24 24" fill="none">
        <rect id="Frame 211" rx="0.000000" width="23.000000" height="23.000000"
            transform="translate(0.500000 0.500000)" fill="#FFFFFF" fill-opacity="0" />
        <path id="Shape (Stroke)"
            d="M11.33 1.89L3.33 5.89L3.33 5.89C2.82 6.15 2.5 6.67 2.5 7.24L2.5 16.76C2.49 17.33 2.81 17.85 3.32 18.11L11.32 22.11C11.74 22.32 12.24 22.32 12.66 22.11L20.66 18.11L20.66 18.11C21.17 17.85 21.5 17.33 21.5 16.76L21.5 7.24C21.5 6.67 21.17 6.15 20.66 5.89L20.66 5.89L12.66 1.89C12.24 1.68 11.75 1.68 11.33 1.89ZM10.88 1C11.58 0.65 12.41 0.65 13.11 1L13.11 1L21.11 5C21.96 5.42 22.5 6.29 22.5 7.23L22.5 16.77C22.5 17.71 21.96 18.58 21.11 19L13.11 23C12.41 23.35 11.58 23.35 10.87 23L2.87 19L2.87 19C2.02 18.57 1.49 17.7 1.5 16.75L1.5 7.24C1.5 6.29 2.03 5.42 2.88 5L10.88 1L10.88 1Z"
            fill="currentColor" fill-opacity="1.000000" fill-rule="evenodd" />
        <path id="Shape (Stroke)"
            d="M1.87 5.93C1.99 5.68 2.29 5.58 2.54 5.71L12 10.44L21.45 5.71C21.7 5.58 22 5.68 22.12 5.93C22.25 6.18 22.15 6.48 21.9 6.6L12.22 11.44C12.08 11.51 11.91 11.51 11.77 11.44L2.09 6.6C1.85 6.48 1.75 6.18 1.87 5.93Z"
            fill="currentColor" fill-opacity="1.000000" fill-rule="evenodd" />
        <path id="Shape (Stroke)"
            d="M12 10.5C12.27 10.5 12.5 10.72 12.5 11L12.5 22.76C12.5 23.03 12.27 23.26 12 23.26C11.72 23.26 11.5 23.03 11.5 22.76L11.5 11C11.5 10.72 11.72 10.5 12 10.5Z"
            fill="currentColor" fill-opacity="1.000000" fill-rule="evenodd" />
        <path id="Shape (Stroke)"
            d="M6.55 3.27C6.67 3.02 6.97 2.92 7.22 3.05L17.22 8.05C17.47 8.17 17.57 8.47 17.44 8.72C17.32 8.97 17.02 9.07 16.77 8.94L6.77 3.94C6.53 3.82 6.42 3.52 6.55 3.27Z"
            fill="currentColor" fill-opacity="1.000000" fill-rule="evenodd" />
    </symbol>

    <!-- Icon shopping cart -->
    <symbol id="icon-shopping-cart" width="24.000000" height="24.000000" viewBox="0 0 24 24"
        fill="none">
        <rect rx="0.000000" width="23.000000" height="23.000000"
            transform="translate(0.500000 0.500000)" fill="#FFFFFF" fill-opacity="0" />
        <path
            d="M5.5 21C5.5 19.61 6.62 18.5 8 18.5C9.37 18.5 10.5 19.61 10.5 21C10.5 22.38 9.37 23.5 8 23.5C6.62 23.5 5.5 22.38 5.5 21ZM8 19.5C7.17 19.5 6.5 20.17 6.5 21C6.5 21.82 7.17 22.5 8 22.5C8.82 22.5 9.5 21.82 9.5 21C9.5 20.17 8.82 19.5 8 19.5Z"
            fill="currentColor" fill-opacity="1.000000" fill-rule="evenodd" />
        <path id="Oval (Stroke)"
            d="M17.5 21C17.5 19.61 18.62 18.5 20 18.5C21.37 18.5 22.5 19.61 22.5 21C22.5 22.38 21.37 23.5 20 23.5C18.62 23.5 17.5 22.38 17.5 21ZM20 19.5C19.17 19.5 18.5 20.17 18.5 21C18.5 21.82 19.17 22.5 20 22.5C20.82 22.5 21.5 21.82 21.5 21C21.5 20.17 20.82 19.5 20 19.5Z"
            fill="currentColor" fill-opacity="1.000000" fill-rule="evenodd" />
        <path id="Union"
            d="M1 0.5C0.72 0.5 0.5 0.72 0.5 1C0.5 1.27 0.72 1.5 1 1.5L4.58 1.5C5.33 5.79 6.1 10.06 6.75 14.37C6.93 15.59 7.98 16.5 9.22 16.5L19.35 16.5C20.55 16.5 21.57 15.65 21.81 14.49L23.25 7.29C23.43 6.36 22.72 5.5 21.78 5.5L7.16 5.5C6.85 5.5 6.57 5.58 6.34 5.74L5.49 0.91C5.44 0.67 5.24 0.5 5 0.5L1 0.5ZM6.66 7.07C6.62 6.77 6.85 6.5 7.16 6.5L21.78 6.5C22.09 6.5 22.33 6.78 22.26 7.09L20.83 14.29C20.69 14.99 20.07 15.5 19.35 15.5L9.22 15.5C8.48 15.5 7.84 14.95 7.73 14.22L6.66 7.07Z"
            fill="currentColor" fill-opacity="1.000000" fill-rule="evenodd" />
    </symbol>

    <!-- Icon login -->
    <symbol id="icon-log-in" width="24.000000" height="24.000000" viewBox="0 0 24 24" fill="none">
        <rect rx="0.000000" width="23.000000" height="23.000000"
            transform="translate(0.500000 0.500000)" fill="#FFFFFF" fill-opacity="0" />
        <path id="Shape (Stroke)"
            d="M13.5 2C13.5 1.72 13.72 1.5 14 1.5L19 1.5C20.37 1.5 21.5 2.61 21.5 4L21.5 20C21.5 21.38 20.37 22.5 19 22.5L14 22.5C13.72 22.5 13.5 22.27 13.5 22C13.5 21.72 13.72 21.5 14 21.5L19 21.5C19.82 21.5 20.5 20.82 20.5 20L20.5 4C20.5 3.17 19.82 2.5 19 2.5L14 2.5C13.72 2.5 13.5 2.27 13.5 2Z"
            fill="#FFFFFF" fill-opacity="1.000000" fill-rule="evenodd" />
        <path id="Shape (Stroke)"
            d="M10.64 7.64C10.83 7.45 11.16 7.45 11.35 7.64L15.35 11.64C15.54 11.84 15.54 12.15 15.35 12.35L11.35 16.35C11.16 16.54 10.83 16.54 10.64 16.35C10.45 16.15 10.45 15.84 10.64 15.64L14.29 12L10.64 8.35C10.45 8.15 10.45 7.84 10.64 7.64Z"
            fill="#FFFFFF" fill-opacity="1.000000" fill-rule="evenodd" />
        <path id="Shape (Stroke)"
            d="M2.5 12C2.5 11.72 2.72 11.5 3 11.5L15 11.5C15.27 11.5 15.5 11.72 15.5 12C15.5 12.27 15.27 12.5 15 12.5L3 12.5C2.72 12.5 2.5 12.27 2.5 12Z"
            fill="#FFFFFF" fill-opacity="1.000000" fill-rule="evenodd" />
    </symbol>

    <!-- Icon arrow right -->
    <symbol id="icon-arrow-right" viewBox="0 0 24 24" fill="none"
        stroke="currentColor" stroke-width="2" stroke-linecap="round" stroke-linejoin="round">
        <path d="m9 18 6-6-6-6" />
    </symbol>

    <!-- Icon star -->
    <symbol id="icon-star" viewBox="0 0 24 24"
        stroke="currentColor" stroke-width="2" stroke-linecap="round" stroke-linejoin="round">
        <path
            fill="currentColor"
            d="M11.525 2.295a.53.53 0 0 1 .95 0l2.31 4.679a2.123 2.123 0 0 0 1.595 1.16l5.166.756a.53.53 0 0 1 .294.904l-3.736 3.638a2.123 2.123 0 0 0-.611 1.878l.882 5.14a.53.53 0 0 1-.771.56l-4.618-2.428a2.122 2.122 0 0 0-1.973 0L6.396 21.01a.53.53 0 0 1-.77-.56l.881-5.139a2.122 2.122 0 0 0-.611-1.879L2.16 9.795a.53.53 0 0 1 .294-.906l5.165-.755a2.122 2.122 0 0 0 1.597-1.16z" />
    </symbol>

    <!-- Icon verify -->
    <symbol id="icon-verify" viewBox="0 0 24 24" fill="none"
        stroke="currentColor" stroke-width="2" stroke-linecap="round" stroke-linejoin="round">
        <path
            d="M3.85 8.62a4 4 0 0 1 4.78-4.77 4 4 0 0 1 6.74 0 4 4 0 0 1 4.78 4.78 4 4 0 0 1 0 6.74 4 4 0 0 1-4.77 4.78 4 4 0 0 1-6.75 0 4 4 0 0 1-4.78-4.77 4 4 0 0 1 0-6.76Z" />
        <path d="m9 12 2 2 4-4" />
    </symbol>
</svg>